<svg width="32" height="32" viewBox="0 0 32 32" fill="none" xmlns="http://www.w3.org/2000/svg">
<path d="M6.78874 26.3759L7.24273 25.4849L6.78874 26.3759ZM5.62366 25.2107L4.73265 25.6647H4.73265L5.62366 25.2107ZM26.376 25.2107L25.485 24.7567L26.376 25.2107ZM25.2101 26.3759L24.7561 25.4849L25.2101 26.3759ZM25.2101 5.62394L25.664 4.73294H25.664L25.2101 5.62394ZM26.376 6.78935L25.485 7.24334L26.376 6.78935ZM6.78874 5.62394L7.24273 6.51495L6.78874 5.62394ZM5.62366 6.78935L6.51466 7.24334L5.62366 6.78935ZM21.333 21.3333V20.3333C20.7807 20.3333 20.333 20.781 20.333 21.3333H21.333ZM21.3357 21.3333L22.3354 21.3567C22.3417 21.0875 22.2392 20.8271 22.051 20.6345C21.8628 20.4419 21.6049 20.3333 21.3357 20.3333V21.3333ZM21.3356 21.336L21.3117 22.3357C21.5769 22.342 21.8338 22.2427 22.0258 22.0596C22.2178 21.8765 22.3291 21.6246 22.3353 21.3593L21.3356 21.336ZM21.333 21.3359H20.333C20.333 21.8789 20.7663 22.3226 21.3091 22.3356L21.333 21.3359ZM15.9997 21.3333V20.3333C15.4474 20.3333 14.9997 20.781 14.9997 21.3333H15.9997ZM16.0023 21.3333L17.0021 21.3567C17.0084 21.0875 16.9058 20.8271 16.7177 20.6345C16.5295 20.4419 16.2716 20.3333 16.0023 20.3333V21.3333ZM16.0023 21.336L15.9784 22.3357C16.2436 22.342 16.5005 22.2427 16.6925 22.0596C16.8845 21.8765 16.9958 21.6246 17.002 21.3593L16.0023 21.336ZM15.9997 21.3359H14.9997C14.9997 21.8789 15.4329 22.3226 15.9758 22.3356L15.9997 21.3359ZM10.6663 21.3333V20.3333C10.1141 20.3333 9.66634 20.781 9.66634 21.3333H10.6663ZM10.669 21.3333L11.6687 21.3567C11.675 21.0875 11.5725 20.8271 11.3843 20.6345C11.1962 20.4419 10.9383 20.3333 10.669 20.3333V21.3333ZM10.6689 21.336L10.645 22.3357C10.9103 22.342 11.1672 22.2427 11.3591 22.0596C11.5511 21.8765 11.6625 21.6246 11.6687 21.3593L10.6689 21.336ZM10.6663 21.3359H9.66634C9.66634 21.8789 10.0996 22.3226 10.6424 22.3356L10.6663 21.3359ZM21.3356 16H22.3356C22.3356 15.4477 21.8879 15 21.3356 15V16ZM21.3356 16.0026L21.3117 17.0023C21.581 17.0088 21.8415 16.9063 22.0342 16.7181C22.2269 16.53 22.3356 16.272 22.3356 16.0026H21.3356ZM21.333 16.0026H20.333C20.333 16.5455 20.7663 16.9893 21.3091 17.0023L21.333 16.0026ZM21.333 16V15C20.7807 15 20.333 15.4477 20.333 16H21.333ZM15.9997 16V15C15.4474 15 14.9997 15.4477 14.9997 16H15.9997ZM16.0023 16L17.0021 16.0233C17.0084 15.7541 16.9058 15.4938 16.7177 15.3012C16.5295 15.1085 16.2716 15 16.0023 15V16ZM16.0023 16.0026L15.9784 17.0023C16.2436 17.0087 16.5005 16.9094 16.6925 16.7263C16.8845 16.5431 16.9958 16.2912 17.002 16.026L16.0023 16.0026ZM15.9997 16.0026H14.9997C14.9997 16.5455 15.4329 16.9893 15.9758 17.0023L15.9997 16.0026ZM10.6663 16V15C10.1141 15 9.66634 15.4477 9.66634 16H10.6663ZM10.669 16L11.6687 16.0233C11.675 15.7541 11.5725 15.4938 11.3843 15.3012C11.1962 15.1085 10.9383 15 10.669 15V16ZM10.6689 16.0026L10.645 17.0023C10.9103 17.0087 11.1672 16.9094 11.3591 16.7263C11.5511 16.5431 11.6625 16.2912 11.6687 16.026L10.6689 16.0026ZM10.6663 16.0026H9.66634C9.66634 16.5455 10.0996 16.9893 10.6424 17.0023L10.6663 16.0026ZM5.33301 9.66663C4.78072 9.66663 4.33301 10.1143 4.33301 10.6666C4.33301 11.2189 4.78072 11.6666 5.33301 11.6666V9.66663ZM26.6663 11.6666C27.2186 11.6666 27.6663 11.2189 27.6663 10.6666C27.6663 10.1143 27.2186 9.66663 26.6663 9.66663V11.6666ZM22.333 2.66663C22.333 2.11434 21.8853 1.66663 21.333 1.66663C20.7807 1.66663 20.333 2.11434 20.333 2.66663H22.333ZM20.333 5.33329C20.333 5.88558 20.7807 6.33329 21.333 6.33329C21.8853 6.33329 22.333 5.88558 22.333 5.33329H20.333ZM11.6663 2.66663C11.6663 2.11434 11.2186 1.66663 10.6663 1.66663C10.1141 1.66663 9.66634 2.11434 9.66634 2.66663H11.6663ZM9.66634 5.33329C9.66634 5.88558 10.1141 6.33329 10.6663 6.33329C11.2186 6.33329 11.6663 5.88558 11.6663 5.33329H9.66634ZM9.59993 6.33329H22.3999V4.33329H9.59993V6.33329ZM25.6663 9.59989V22.3999H27.6663V9.59989H25.6663ZM22.3999 25.6666H9.59993V27.6666H22.3999V25.6666ZM6.33301 22.3999V9.59989H4.33301V22.3999H6.33301ZM9.59993 25.6666C8.83672 25.6666 8.32428 25.6658 7.92962 25.6336C7.54658 25.6023 7.36343 25.5464 7.24273 25.4849L6.33475 27.2669C6.78447 27.4961 7.26019 27.5856 7.76677 27.627C8.26174 27.6674 8.86967 27.6666 9.59993 27.6666V25.6666ZM4.33301 22.3999C4.33301 23.1301 4.33223 23.738 4.37266 24.2328C4.41404 24.7394 4.50352 25.215 4.73265 25.6647L6.51466 24.7567C6.45315 24.6359 6.3973 24.4529 6.36602 24.07C6.33379 23.6755 6.33301 23.1631 6.33301 22.3999H4.33301ZM7.24273 25.4849C6.92928 25.3252 6.67453 25.0704 6.51466 24.7567L4.73265 25.6647C5.08411 26.3544 5.64467 26.9153 6.33475 27.2669L7.24273 25.4849ZM25.6663 22.3999C25.6663 23.1632 25.6656 23.6755 25.6335 24.0702C25.6022 24.4531 25.5464 24.6361 25.485 24.7567L27.267 25.6647C27.4962 25.2148 27.5855 24.7392 27.6268 24.2327C27.6672 23.7379 27.6663 23.13 27.6663 22.3999H25.6663ZM22.3999 27.6666C23.1302 27.6666 23.7379 27.6674 24.2326 27.6269C24.7391 27.5855 25.2144 27.496 25.664 27.2669L24.7561 25.4849C24.6352 25.5465 24.4523 25.6023 24.0697 25.6336C23.6753 25.6658 23.1632 25.6666 22.3999 25.6666V27.6666ZM25.485 24.7567C25.3254 25.0698 25.0702 25.3249 24.7561 25.4849L25.664 27.2669C26.3535 26.9157 26.9152 26.3551 27.267 25.6647L25.485 24.7567ZM22.3999 6.33329C23.1632 6.33329 23.6753 6.33407 24.0697 6.3663C24.4523 6.39757 24.6353 6.4534 24.7561 6.51495L25.664 4.73294C25.2144 4.50384 24.739 4.41434 24.2326 4.37295C23.7379 4.33251 23.1302 4.33329 22.3999 4.33329V6.33329ZM27.6663 9.59989C27.6663 8.86976 27.6672 8.26196 27.6268 7.7672C27.5855 7.26075 27.4962 6.78514 27.267 6.33536L25.485 7.24334C25.5464 7.36398 25.6022 7.54691 25.6335 7.92976C25.6656 8.3243 25.6663 8.83655 25.6663 9.59989H27.6663ZM24.7561 6.51495C25.0701 6.67495 25.3254 6.93014 25.485 7.24334L27.267 6.33536C26.9152 5.64502 26.3536 5.08426 25.664 4.73294L24.7561 6.51495ZM9.59993 4.33329C8.86969 4.33329 8.26175 4.33252 7.76679 4.37294C7.26022 4.41432 6.78449 4.50378 6.33475 4.73294L7.24273 6.51495C7.36342 6.45345 7.54655 6.39759 7.9296 6.3663C8.32426 6.33407 8.83671 6.33329 9.59993 6.33329V4.33329ZM6.33301 9.59989C6.33301 8.83666 6.33379 8.3244 6.36602 7.92992C6.39729 7.54712 6.45313 7.3641 6.51466 7.24334L4.73265 6.33536C4.50353 6.78503 4.41405 7.26054 4.37266 7.76704C4.33223 8.26186 4.33301 8.86966 4.33301 9.59989H6.33301ZM6.33475 4.73294C5.64456 5.0846 5.08405 5.64569 4.73265 6.33536L6.51466 7.24334C6.67458 6.92948 6.92938 6.67461 7.24273 6.51495L6.33475 4.73294ZM21.333 22.3333H21.3357V20.3333H21.333V22.3333ZM20.3359 21.3099L20.3359 21.3126L22.3353 21.3593L22.3354 21.3567L20.3359 21.3099ZM21.3595 20.3362L21.3569 20.3362L21.3091 22.3356L21.3117 22.3357L21.3595 20.3362ZM22.333 21.3359V21.3333H20.333V21.3359H22.333ZM15.9997 22.3333H16.0023V20.3333H15.9997V22.3333ZM15.0026 21.3099L15.0026 21.3126L17.002 21.3593L17.0021 21.3567L15.0026 21.3099ZM16.0262 20.3362L16.0236 20.3362L15.9758 22.3356L15.9784 22.3357L16.0262 20.3362ZM16.9997 21.3359V21.3333H14.9997V21.3359H16.9997ZM10.6663 22.3333H10.669V20.3333H10.6663V22.3333ZM9.66928 21.3099L9.66922 21.3126L11.6687 21.3593L11.6687 21.3567L9.66928 21.3099ZM10.6929 20.3362L10.6903 20.3362L10.6424 22.3356L10.645 22.3357L10.6929 20.3362ZM11.6663 21.3359V21.3333H9.66634V21.3359H11.6663ZM20.3356 16V16.0026H22.3356V16H20.3356ZM21.3595 15.0029L21.3569 15.0028L21.3091 17.0023L21.3117 17.0023L21.3595 15.0029ZM22.333 16.0026V16H20.333V16.0026H22.333ZM21.333 17H21.3356V15H21.333V17ZM15.9997 17H16.0023V15H15.9997V17ZM15.0026 15.9766L15.0026 15.9793L17.002 16.026L17.0021 16.0233L15.0026 15.9766ZM16.0262 15.0029L16.0236 15.0028L15.9758 17.0023L15.9784 17.0023L16.0262 15.0029ZM16.9997 16.0026V16H14.9997V16.0026H16.9997ZM10.6663 17H10.669V15H10.6663V17ZM9.66928 15.9766L9.66922 15.9793L11.6687 16.026L11.6687 16.0233L9.66928 15.9766ZM10.6929 15.0029L10.6903 15.0028L10.6424 17.0023L10.645 17.0023L10.6929 15.0029ZM11.6663 16.0026V16H9.66634V16.0026H11.6663ZM5.33301 11.6666H26.6663V9.66663H5.33301V11.6666ZM20.333 2.66663V5.33329H22.333V2.66663H20.333ZM9.66634 2.66663V5.33329H11.6663V2.66663H9.66634Z" fill="#424244"/>
</svg>
