<svg width="33" height="32" viewBox="0 0 33 32" fill="none" xmlns="http://www.w3.org/2000/svg">
<path d="M4.79065 8.1228L5.68166 8.57679L4.79065 8.1228ZM5.95573 6.9574L6.40972 7.8484L5.95573 6.9574ZM5.95573 25.0427L6.40972 24.1517L5.95573 25.0427ZM4.79065 23.8775L3.89964 24.3314L4.79065 23.8775ZM28.2096 23.8775L27.3186 23.4235L28.2096 23.8775ZM27.0437 25.0427L26.5897 24.1517L27.0437 25.0427ZM28.2096 8.1228L27.3186 8.57679V8.57679L28.2096 8.1228ZM27.0437 6.9574L27.4977 6.06639L27.0437 6.9574ZM9.83333 19.0001C9.28105 19.0001 8.83333 19.4478 8.83333 20.0001C8.83333 20.5524 9.28105 21.0001 9.83333 21.0001V19.0001ZM15.1667 21.0001C15.719 21.0001 16.1667 20.5524 16.1667 20.0001C16.1667 19.4478 15.719 19.0001 15.1667 19.0001V21.0001ZM4.5 13.6667C3.94772 13.6667 3.5 14.1145 3.5 14.6667C3.5 15.219 3.94772 15.6667 4.5 15.6667V13.6667ZM28.5 15.6667C29.0523 15.6667 29.5 15.219 29.5 14.6667C29.5 14.1145 29.0523 13.6667 28.5 13.6667V15.6667ZM4.5 11.0001C3.94772 11.0001 3.5 11.4478 3.5 12.0001C3.5 12.5524 3.94772 13.0001 4.5 13.0001V11.0001ZM28.5 13.0001C29.0523 13.0001 29.5 12.5524 29.5 12.0001C29.5 11.4478 29.0523 11.0001 28.5 11.0001V13.0001ZM27.5 10.9333V21.0667H29.5V10.9333H27.5ZM24.2336 24.3334H8.76693V26.3334H24.2336V24.3334ZM5.5 21.0667V10.9333H3.5V21.0667H5.5ZM8.76693 7.66675H24.2336V5.66675H8.76693V7.66675ZM5.5 10.9333C5.5 10.1701 5.50078 9.65785 5.53301 9.26337C5.56429 8.88058 5.62013 8.69755 5.68166 8.57679L3.89964 7.66881C3.67052 8.11849 3.58104 8.594 3.53965 9.1005C3.49922 9.59532 3.5 10.2031 3.5 10.9333H5.5ZM8.76693 5.66675C8.03668 5.66675 7.42874 5.66597 6.93378 5.7064C6.42721 5.74777 5.95148 5.83724 5.50174 6.06639L6.40972 7.8484C6.53041 7.78691 6.71354 7.73105 7.09659 7.69976C7.49126 7.66753 8.0037 7.66675 8.76693 7.66675V5.66675ZM5.68166 8.57679C5.84158 8.26293 6.09637 8.00806 6.40972 7.8484L5.50174 6.06639C4.81155 6.41806 4.25105 6.97914 3.89964 7.66881L5.68166 8.57679ZM8.76693 24.3334C8.00371 24.3334 7.49127 24.3326 7.09662 24.3004C6.71357 24.2691 6.53042 24.2132 6.40972 24.1517L5.50174 25.9337C5.95147 26.1629 6.42718 26.2524 6.93376 26.2937C7.42873 26.3342 8.03667 26.3334 8.76693 26.3334V24.3334ZM3.5 21.0667C3.5 21.7969 3.49922 22.4048 3.53965 22.8996C3.58103 23.4062 3.67051 23.8817 3.89964 24.3314L5.68166 23.4235C5.62014 23.3027 5.56429 23.1197 5.53301 22.7368C5.50078 22.3422 5.5 21.8299 5.5 21.0667H3.5ZM6.40972 24.1517C6.09627 23.992 5.84152 23.7372 5.68166 23.4235L3.89964 24.3314C4.2511 25.0212 4.81166 25.5821 5.50174 25.9337L6.40972 24.1517ZM27.5 21.0667C27.5 21.83 27.4993 22.3423 27.4671 22.7369C27.4359 23.1199 27.3801 23.3028 27.3186 23.4235L29.1006 24.3314C29.3298 23.8816 29.4192 23.406 29.4605 22.8995C29.5008 22.4047 29.5 21.7968 29.5 21.0667H27.5ZM24.2336 26.3334C24.9638 26.3334 25.5715 26.3342 26.0663 26.2937C26.5727 26.2523 27.0481 26.1628 27.4977 25.9337L26.5897 24.1517C26.4689 24.2133 26.2859 24.2691 25.9033 24.3004C25.509 24.3326 24.9968 24.3334 24.2336 24.3334V26.3334ZM27.3186 23.4235C27.1591 23.7366 26.9038 23.9917 26.5897 24.1517L27.4977 25.9337C28.1871 25.5825 28.7488 25.0219 29.1006 24.3314L27.3186 23.4235ZM29.5 10.9333C29.5 10.2032 29.5008 9.59541 29.4605 9.10066C29.4192 8.59421 29.3298 8.1186 29.1006 7.66881L27.3186 8.57679C27.3801 8.69744 27.4359 8.88037 27.4671 9.26321C27.4993 9.65776 27.5 10.17 27.5 10.9333H29.5ZM24.2336 7.66675C24.9968 7.66675 25.509 7.66753 25.9033 7.69976C26.286 7.73103 26.4689 7.78685 26.5897 7.8484L27.4977 6.06639C27.0481 5.83729 26.5727 5.74779 26.0663 5.7064C25.5715 5.66597 24.9638 5.66675 24.2336 5.66675V7.66675ZM29.1006 7.66881C28.7489 6.97848 28.1872 6.41772 27.4977 6.06639L26.5897 7.8484C26.9037 8.0084 27.159 8.2636 27.3186 8.57679L29.1006 7.66881ZM9.83333 21.0001H15.1667V19.0001H9.83333V21.0001ZM4.5 15.6667H28.5V13.6667H4.5V15.6667ZM4.5 13.0001H28.5V11.0001H4.5V13.0001Z" fill="#424244"/>
</svg>
