<svg width="33" height="32" viewBox="0 0 33 32" fill="none" xmlns="http://www.w3.org/2000/svg">
<path d="M21.8329 10.6666C21.8329 7.72107 19.4451 5.33325 16.4996 5.33325C13.5541 5.33325 11.1663 7.72107 11.1663 10.6666M26.4267 14.2319L27.6711 21.6985C27.956 23.4078 28.0988 24.2624 27.8514 24.9284C27.6343 25.5129 27.2196 26.0028 26.6787 26.3131C26.0624 26.6666 25.1956 26.6666 23.4628 26.6666H9.53607C7.80325 26.6666 6.93755 26.6666 6.32123 26.3131C5.78039 26.0028 5.3647 25.5129 5.14761 24.9284C4.90022 24.2624 5.04286 23.4078 5.32774 21.6985L6.57218 14.2319C6.78329 12.9652 6.88919 12.3319 7.20523 11.8567C7.48381 11.4378 7.87522 11.1061 8.33425 10.9002C8.85499 10.6666 9.49677 10.6666 10.7809 10.6666H22.2187C23.5028 10.6666 24.1445 10.6666 24.6653 10.9002C25.1243 11.1061 25.5153 11.4378 25.7939 11.8567C26.1099 12.3319 26.2156 12.9652 26.4267 14.2319Z" stroke="#424244" stroke-width="2" stroke-linecap="round" stroke-linejoin="round"/>
</svg>
