<svg width="40" height="40" viewBox="0 0 40 40" fill="none" xmlns="http://www.w3.org/2000/svg">
<g clip-path="url(#clip0_1_4202)">
<path d="M31.9531 0.226562C30.9844 0.539062 30.7344 0.726562 28.9062 2.54688L27.1484 4.29688L31.4219 8.57031L35.7031 12.8516L37.3516 11.2109C39.1094 9.46094 39.5156 8.94531 39.7734 8.13281C40.125 6.99219 40.0469 5.94531 39.5156 4.84375C39.2188 4.21875 39.1094 4.08594 37.5078 2.49219C35.7109 0.695312 35.3984 0.46875 34.375 0.195312C33.7734 0.03125 32.4922 0.046875 31.9531 0.226562Z" fill="#C85100"/>
<path d="M13.6176 17.8359L2.50825 28.9453L1.24262 34.0235C0.312935 37.75 -0.0151905 39.1641 0.0316845 39.3203C0.101997 39.6016 0.391059 39.8985 0.664497 39.9688C0.875434 40.0235 10.6332 37.6563 11.0161 37.4531C11.1254 37.3985 16.1801 32.3828 22.2504 26.3125L33.2817 15.2734L29.0004 10.9922L24.727 6.71876L13.6176 17.8359Z" fill="#C85100"/>
</g>
<defs>
<clipPath id="clip0_1_4202">
<rect width="40" height="40" fill="white"/>
</clipPath>
</defs>
</svg>
