<svg width="33" height="32" viewBox="0 0 33 32" fill="none" xmlns="http://www.w3.org/2000/svg">
<path d="M21.8333 10.6666C21.8333 7.72107 19.4455 5.33325 16.5 5.33325C13.5545 5.33325 11.1667 7.72107 11.1667 10.6666M28.5 14.9332V22.3999C28.5 23.8933 28.5003 24.6402 28.2096 25.2106C27.954 25.7124 27.5455 26.1202 27.0437 26.3759C26.4733 26.6665 25.7271 26.6666 24.2336 26.6666H8.76693C7.27345 26.6666 6.52616 26.6665 5.95573 26.3759C5.45396 26.1202 5.04631 25.7124 4.79065 25.2106C4.5 24.6402 4.5 23.8933 4.5 22.3999V14.9332C4.5 13.4397 4.5 12.6931 4.79065 12.1226C5.04631 11.6209 5.45396 11.2129 5.95573 10.9572C6.52616 10.6666 7.27345 10.6666 8.76693 10.6666H24.2336C25.7271 10.6666 26.4733 10.6666 27.0437 10.9572C27.5455 11.2129 27.954 11.6209 28.2096 12.1226C28.5003 12.6931 28.5 13.4397 28.5 14.9332Z" stroke="#424244" stroke-width="2" stroke-linecap="round" stroke-linejoin="round"/>
</svg>
