<svg width="34" height="34" viewBox="0 0 34 34" fill="none" xmlns="http://www.w3.org/2000/svg">
<g clip-path="url(#clip0_2020_316)">
<path d="M14.6068 17.0283L21.4603 17.0283M27.0569 18.4424L14.7637 24.9505C13.6617 25.534 13.1107 25.8257 12.7474 25.7418C12.4323 25.6691 12.1721 25.4486 12.0485 25.1498C11.906 24.8052 12.1029 24.2135 12.4972 23.0305L14.3293 17.5343C14.3919 17.3466 14.4231 17.2527 14.4356 17.1566C14.4466 17.0714 14.4468 16.9853 14.4358 16.9001C14.4233 16.8041 14.3919 16.7101 14.3293 16.5223L12.4972 11.0261C12.1029 9.84312 11.9056 9.25168 12.0481 8.90709C12.1717 8.60824 12.4323 8.38761 12.7474 8.31485C13.1107 8.23095 13.6617 8.52275 14.7638 9.10618L27.057 15.6144C27.9234 16.073 28.3565 16.3022 28.4981 16.6082C28.6215 16.8747 28.6216 17.1821 28.4983 17.4485C28.3566 17.7545 27.9233 17.9837 27.0569 18.4424Z" stroke="#FF6700" stroke-width="2" stroke-linecap="round" stroke-linejoin="round"/>
</g>
<defs>
<clipPath id="clip0_2020_316">
<rect width="24" height="24" fill="white" transform="translate(17 0.0576172) rotate(45)"/>
</clipPath>
</defs>
</svg>
