<svg width="50" height="50" viewBox="0 0 50 50" fill="none" xmlns="http://www.w3.org/2000/svg">
<path d="M16.6663 25.0153C16.6582 20.4137 20.3826 16.6755 24.9834 16.6675C29.5851 16.6585 33.3239 20.3812 33.3329 24.9838C33.3418 29.5863 29.6174 33.3236 25.0149 33.3326C20.4141 33.3414 16.6752 29.6179 16.6663 25.0153ZM12.1636 25.0243C12.1773 32.1144 17.9356 37.8492 25.0239 37.8354C32.113 37.8217 37.8511 32.0649 37.8373 24.9749C37.8235 17.8873 32.0644 12.1491 24.9745 12.163C17.8861 12.1767 12.1498 17.9358 12.1636 25.0243ZM35.3183 11.6364C35.3215 13.2921 36.6676 14.6327 38.3233 14.6295C39.9797 14.6262 41.3203 13.2808 41.3179 11.6251C41.3147 9.96942 39.9685 8.62801 38.312 8.63133C36.6556 8.63455 35.315 9.98075 35.3183 11.6364ZM14.9378 45.3669C12.5005 45.2609 11.1769 44.8558 10.2949 44.5164C9.12683 44.0645 8.29333 43.5226 7.41609 42.6519C6.5405 41.7778 5.99694 40.9467 5.54089 39.7811C5.19831 38.8989 4.78601 37.5771 4.67175 35.1398C4.54782 32.5047 4.5195 31.7142 4.50739 25.0389C4.4944 18.3652 4.51872 17.5746 4.63376 14.9372C4.73815 12.5016 5.14567 11.1763 5.48425 10.295C5.9362 9.12537 6.47653 8.29344 7.3489 7.41629C8.22283 6.53904 9.05388 5.99715 10.2203 5.54109C11.1016 5.19676 12.4235 4.78768 14.86 4.67195C17.4966 4.54715 18.2863 4.52049 24.96 4.5075C31.6351 4.49451 32.4256 4.51805 35.0631 4.63387C37.4986 4.73992 38.8238 5.14334 39.7044 5.48436C40.8731 5.93631 41.7066 6.47508 42.5831 7.34901C43.4595 8.22303 44.003 9.05243 44.4591 10.2214C44.8032 11.1002 45.2124 12.4237 45.3275 14.8595C45.4529 17.496 45.4814 18.2866 45.4935 24.9603C45.5064 31.6356 45.482 32.4262 45.3663 35.062C45.2602 37.4992 44.856 38.8237 44.5158 39.7066C44.0638 40.8738 43.5235 41.7073 42.6503 42.5846C41.7772 43.4585 40.9461 44.0036 39.7789 44.4597C38.8991 44.8031 37.5757 45.213 35.1408 45.3288C32.5043 45.4528 31.7145 45.4812 25.0385 45.4933C18.3648 45.5063 17.5752 45.4812 14.9378 45.3669ZM14.6462 0.17312C11.9861 0.298706 10.1693 0.724683 8.58161 1.34685C6.93816 1.98758 5.54499 2.84617 4.15915 4.23777C2.77155 5.63016 1.9194 7.02576 1.28356 8.67088C0.668033 10.2626 0.250845 12.0803 0.133364 14.742C0.0167624 17.4086 -0.00999544 18.2591 0.00299285 25.0478C0.0159811 31.8357 0.045864 32.6878 0.173013 35.3552C0.300161 38.0145 0.724673 39.8305 1.34674 41.4189C1.98825 43.0624 2.84606 44.4549 4.23845 45.8416C5.63005 47.2283 7.02654 48.0797 8.67243 48.7164C10.2625 49.3311 12.0808 49.7499 14.7418 49.8665C17.4083 49.984 18.2596 50.0099 25.0466 49.997C31.8368 49.984 32.6882 49.954 35.3547 49.8277C38.0147 49.7005 39.8299 49.2745 41.4191 48.6539C43.0626 48.0109 44.4558 47.1546 45.8418 45.7622C47.2276 44.3705 48.0798 42.9741 48.7156 41.3282C49.3313 39.7382 49.75 37.9196 49.8657 35.2605C49.9824 32.5922 50.0101 31.74 49.997 24.9521C49.984 18.1635 49.9533 17.313 49.827 14.6473C49.7006 11.9855 49.2745 10.1703 48.6532 8.58104C48.011 6.93758 47.154 5.54588 45.7624 4.15838C44.3708 2.77244 42.9743 1.91863 41.3284 1.28445C39.7376 0.668824 37.9199 0.249292 35.2591 0.134253C32.5925 0.0159912 31.7412 -0.0098877 24.9517 0.00300294C18.1639 0.0159912 17.3127 0.0450928 14.6462 0.17312Z" fill="#424244"/>
</svg>
