<svg width="34" height="34" viewBox="0 0 34 34" fill="none" xmlns="http://www.w3.org/2000/svg">
<g clip-path="url(#clip0_2058_156)">
<path d="M14.6071 16.9999L21.4606 16.9999M27.0573 18.4141L14.7641 24.9222C13.6621 25.5057 13.1111 25.7974 12.7478 25.7135C12.4327 25.6408 12.1724 25.4203 12.0489 25.1215C11.9064 24.7769 12.1033 24.1851 12.4976 23.0022L14.3297 17.506C14.3922 17.3182 14.4235 17.2243 14.4359 17.1283C14.447 17.0431 14.4472 16.957 14.4361 16.8718C14.4237 16.7757 14.3923 16.6817 14.3297 16.494L12.4976 10.9978C12.1033 9.8148 11.906 9.22336 12.0485 8.87877C12.1721 8.57992 12.4327 8.35929 12.7478 8.28653C13.1111 8.20263 13.6621 8.49443 14.7641 9.07786L27.0574 15.586C27.9237 16.0447 28.3568 16.2739 28.4985 16.5799C28.6218 16.8464 28.622 17.1537 28.4986 17.4202C28.357 17.7262 27.9237 17.9554 27.0573 18.4141Z" stroke="#FF6700" stroke-width="2" stroke-linecap="round" stroke-linejoin="round"/>
</g>
<defs>
<clipPath id="clip0_2058_156">
<rect width="24" height="24" fill="white" transform="translate(17 0.029541) rotate(45)"/>
</clipPath>
</defs>
</svg>
